<svg width="64" height="48" viewBox="0 0 64 48" fill="none" xmlns="http://www.w3.org/2000/svg">
<path fill-rule="evenodd" clip-rule="evenodd" d="M40.7206 0H52.6074H52.6195C52.6195 0 52.6151 0.00931566 52.6074 0.0297797V5.88135H54.9535V5.88477H60.9762V14.7229H63.9998V20.6107L48.1544 20.6107L40.7209 20.6107V20.6106V20.6105H40.7206V20.6086H40.718V20.6086V20.6085V14.7268V5.88135V2.30322H40.7206V0ZM28.801 20.6106H40.7208V23.5548H28.801V20.6106Z" fill="#333333"/>
<path fill-rule="evenodd" clip-rule="evenodd" d="M43.312 31.6995C41.2838 32.0558 40.2022 33.57 40.2022 36.1976C40.2022 38.8698 41.6444 40.6513 43.7627 40.6513C44.7993 40.6513 45.7007 40.295 47.5937 39.3597C47.5937 41.542 47.5937 41.542 47.5937 41.542C45.2951 42.6108 43.943 42.8781 42.1402 42.8781C40.112 42.8781 38.6698 42.3882 37.543 41.1857C36.3712 40.0278 35.7402 38.5135 35.7402 36.7766C35.7402 32.991 38.6247 30.3634 42.8162 30.3634C45.5655 30.3634 47.5035 31.655 47.5035 33.4809C47.5035 34.6834 46.6021 35.5296 45.2951 35.5296C44.619 35.5296 44.0782 35.3069 43.312 34.9061" fill="#333333"/>
<path fill-rule="evenodd" clip-rule="evenodd" d="M33.1711 36.7766C35.019 34.5053 35.695 33.57 35.695 32.4566C35.695 31.3432 34.7936 30.3634 33.5316 30.3634C32.8105 30.3634 32.1345 30.7642 31.819 31.1205C31.819 35.7968 31.819 35.7968 31.819 35.7968C28.7993 39.8051 28.7993 39.8051 28.7993 39.8051C28.7993 30.7197 28.7993 30.7197 28.7993 30.7197C25.9148 30.7197 25.9148 30.7197 25.9148 30.7197C21.1374 38.5135 21.1374 38.5135 21.1374 38.5135C21.1374 30.7197 21.1374 30.7197 21.1374 30.7197C19.5149 30.7197 19.5149 30.7197 19.5149 30.7197C15.1431 31.6995 15.1431 31.6995 15.1431 31.6995C15.1431 32.8129 15.1431 32.8129 15.1431 32.8129C17.5318 33.0356 17.5318 33.0356 17.5318 33.0356C17.5318 42.6999 17.5318 42.6999 17.5318 42.6999C20.5515 42.6999 20.5515 42.6999 20.5515 42.6999C25.1486 35.2178 25.1486 35.2178 25.1486 35.2178C25.1486 42.6999 25.1486 42.6999 25.1486 42.6999C28.5289 42.6999 28.5289 42.6999 28.5289 42.6999" fill="#333333"/>
<path fill-rule="evenodd" clip-rule="evenodd" d="M7.9774 46.8866L5.99431 46.4412V42.6111C6.0624 42.6149 6.13016 42.6186 6.19745 42.6223C6.93195 42.6628 7.60959 42.7002 8.02247 42.7002C12.0788 42.7002 14.7379 40.0726 14.7379 36.2425C14.7379 32.9022 12.7548 30.4973 10.1408 30.4973C8.96894 30.4973 8.20275 30.72 5.99431 32.0561V30.4528H4.73235L0 31.8779V32.9913H1.98308V46.4412L0.18028 46.8866V48H7.9774V46.8866ZM6.67117 41.1859H5.99512V33.1694C6.67117 33.0357 7.0768 32.9912 7.34722 32.9912C9.37537 32.9912 10.4571 34.3273 10.4571 36.7768C10.4571 39.7162 9.10495 41.1859 6.67117 41.1859Z" fill="#333333"/>
</svg>
