<?xml version="1.0" encoding="UTF-8" standalone="no"?>
<svg
   xmlns:dc="http://purl.org/dc/elements/1.1/"
   xmlns:cc="http://creativecommons.org/ns#"
   xmlns:rdf="http://www.w3.org/1999/02/22-rdf-syntax-ns#"
   xmlns:svg="http://www.w3.org/2000/svg"
   xmlns="http://www.w3.org/2000/svg"
   viewBox="0 0 768.58667 124"
   height="124"
   width="768.58667"
   xml:space="preserve"
   id="svg2"
   version="1.1"><metadata
     id="metadata8"><rdf:RDF><cc:Work
         rdf:about=""><dc:format>image/svg+xml</dc:format><dc:type
           rdf:resource="http://purl.org/dc/dcmitype/StillImage" /></cc:Work></rdf:RDF></metadata><defs
     id="defs6" /><g
     transform="matrix(1.3333333,0,0,-1.3333333,0,124)"
     id="g10"><g
       transform="scale(0.1)"
       id="g12"><path
         id="path14"
         style="fill:#2e2d2d;fill-opacity:1;fill-rule:nonzero;stroke:none"
         d="M 910,640.781 V 930 H 195.082 L 270.242,151.965 910,640.781" /><path
         id="path16"
         style="fill:#2e2d2d;fill-opacity:1;fill-rule:nonzero;stroke:none"
         d="M 0,0 H 84.9531 L 0,871.758 Z" /><path
         id="path18"
         style="fill:#c2212b;fill-opacity:1;fill-rule:nonzero;stroke:none"
         d="M 910,0 V 401.895 L 382.938,0 Z" /><path
         id="path20"
         style="fill:#2e2d2d;fill-opacity:1;fill-rule:nonzero;stroke:none"
         d="M 1357.74,796.848 V 188.441 h 208.47 V 87.8711 H 1250.74 V 796.848 h 107" /><path
         id="path22"
         style="fill:#2e2d2d;fill-opacity:1;fill-rule:nonzero;stroke:none"
         d="M 2058.9,696.281 H 1774.67 V 525.934 h 275.97 V 425.363 H 1774.67 V 188.441 H 2058.9 V 87.8711 H 1667.68 V 796.848 H 2058.9 V 696.281" /><path
         id="path24"
         style="fill:#2e2d2d;fill-opacity:1;fill-rule:nonzero;stroke:none"
         d="M 2251.81,796.848 2447.88,305.52 2646.7,796.848 h 117.09 L 2445.58,34.6016 2134.71,796.848 h 117.1" /><path
         id="path26"
         style="fill:#2e2d2d;fill-opacity:1;fill-rule:nonzero;stroke:none"
         d="M 3243.16,696.281 H 2958.94 V 525.934 H 3234.9 V 425.363 H 2958.94 V 188.441 h 284.22 V 87.8711 H 2851.94 V 796.848 h 391.22 V 696.281" /><path
         id="path28"
         style="fill:#2e2d2d;fill-opacity:1;fill-rule:nonzero;stroke:none"
         d="m 3474.08,471.285 h 33.97 c 101.32,0 152,38.719 152,116.172 0,72.551 -49.31,108.824 -147.87,108.824 h -38.1 z M 3607.23,390.012 3826.72,87.8711 H 3695.85 L 3493.36,378.066 h -19.28 V 87.8711 h -107 V 796.848 h 125.35 c 93.68,0 161.34,-17.61 202.97,-52.817 45.92,-39.187 68.87,-90.902 68.87,-155.195 0,-50.211 -14.39,-93.367 -43.17,-129.496 -28.76,-36.113 -66.73,-59.227 -113.87,-69.328" /><path
         id="path30"
         style="fill:#2e2d2d;fill-opacity:1;fill-rule:nonzero;stroke:none"
         d="m 4339.27,360.617 -105.16,241.071 -110.2,-241.071 z m 43.61,-100.551 H 4079.36 L 4000.39,87.8711 H 3885.14 L 4235.95,841.379 4574.37,87.8711 h -117.1 l -74.39,172.1949" /><path
         id="path32"
         style="fill:#2e2d2d;fill-opacity:1;fill-rule:nonzero;stroke:none"
         d="m 4978.86,457.059 h 292.94 v -23.422 c 0,-53.27 -6.26,-100.407 -18.82,-141.422 -12.24,-37.977 -32.91,-73.473 -61.98,-106.543 -65.83,-74.086 -149.55,-111.1212 -251.17,-111.1212 -99.19,0 -184.14,35.8202 -254.84,107.4452 -70.72,71.938 -106.07,158.258 -106.07,258.988 0,102.852 35.96,190.098 107.9,261.723 71.93,71.934 159.48,107.914 262.64,107.914 55.41,0 107.14,-11.281 155.21,-33.828 45.91,-22.547 91.07,-59.195 135.45,-109.891 l -76.22,-73.019 c -58.16,77.453 -129.02,116.172 -212.59,116.172 -75.01,0 -137.91,-25.867 -188.72,-77.598 -50.83,-50.809 -76.23,-114.488 -76.23,-191.019 0,-78.973 28.31,-144.028 84.95,-195.145 52.95,-47.461 110.34,-71.176 172.19,-71.176 52.64,0 99.94,17.711 141.88,53.125 41.94,35.727 65.36,78.473 70.25,128.246 h -176.77 v 100.571" /><path
         id="path34"
         style="fill:#2e2d2d;fill-opacity:1;fill-rule:nonzero;stroke:none"
         d="M 5764.41,696.281 H 5480.19 V 525.934 h 275.97 V 425.363 H 5480.19 V 188.441 h 284.22 V 87.8711 H 5373.2 V 796.848 h 391.21 V 696.281" /></g></g></svg>