<svg width="30" height="25" viewBox="0 0 30 25" fill="none" xmlns="http://www.w3.org/2000/svg">
<path d="M26.0215 1.55954e-06C21.0753 3.63436 17.2043 9.9119 17.2043 16.63C17.2043 22.0264 20.4301 25 23.9785 25C27.2043 25 29.6774 22.2467 29.6774 19.0529C29.6774 15.7489 27.5269 13.4361 24.5161 13.4361C23.9785 13.4361 23.2258 13.5463 23.0108 13.6564C23.4409 10.1322 26.5591 5.72688 30 3.4141L26.0215 1.55954e-06ZM8.70968 4.60893e-08C3.87097 3.63436 1.31904e-06 9.91189 7.31733e-07 16.63C2.59958e-07 22.0264 3.2258 25 6.77419 25C9.89247 25 12.4731 22.2467 12.4731 19.0529C12.4731 15.7489 10.2151 13.4361 7.2043 13.4361C6.7742 13.4361 6.02151 13.5463 5.80645 13.6564C6.23656 10.1322 9.24731 5.72687 12.6882 3.4141L8.70968 4.60893e-08Z" fill="#C1272D"/>
</svg>
