<svg width="14" height="12" viewBox="0 0 14 12" fill="none" xmlns="http://www.w3.org/2000/svg">
<path d="M13.7773 1.39597C13.4663 1.53811 13.1434 1.65024 12.812 1.73141C13.1771 1.37392 13.4516 0.926767 13.6065 0.427666C13.6507 0.285181 13.5005 0.16197 13.3757 0.23826C12.9147 0.519994 12.4182 0.731347 11.8999 0.866516C11.8698 0.87436 11.8388 0.878334 11.8077 0.878334C11.7133 0.878334 11.6215 0.842212 11.5493 0.77665C10.9978 0.275825 10.2886 0 9.5522 0C9.23356 0 8.91186 0.0511767 8.59599 0.152122C7.61731 0.464914 6.86218 1.29679 6.62526 2.32313C6.53637 2.70809 6.51231 3.09341 6.55368 3.46835C6.55842 3.51144 6.53866 3.54151 6.52647 3.55562C6.50507 3.58034 6.47473 3.59452 6.44322 3.59452C6.43971 3.59452 6.43609 3.59434 6.4325 3.59399C4.29022 3.3889 2.3584 2.32538 0.992896 0.59938C0.923263 0.511342 0.789734 0.522139 0.734233 0.620236C0.466831 1.09296 0.325518 1.63363 0.325518 2.18381C0.325518 3.02697 0.654257 3.82156 1.22528 4.40082C0.985147 4.34215 0.752732 4.24975 0.536838 4.12619C0.43239 4.06639 0.303877 4.14325 0.30241 4.26635C0.287459 5.51892 0.999142 6.63348 2.06527 7.13536C2.0438 7.13589 2.02233 7.13613 2.00082 7.13613C1.83183 7.13613 1.66072 7.11932 1.4923 7.08615C1.37468 7.06301 1.27586 7.17799 1.31238 7.2955C1.65843 8.40876 2.58863 9.22934 3.70179 9.41565C2.77794 10.0547 1.70209 10.3918 0.582338 10.3918L0.233256 10.3916C0.125701 10.3916 0.0347359 10.4638 0.00732672 10.5712C-0.0196728 10.6769 0.0300596 10.7884 0.121776 10.8434C1.38355 11.6001 2.82279 12 4.28452 12C5.56401 12 6.76087 11.7383 7.84187 11.2224C8.83287 10.7493 9.7086 10.0731 10.4447 9.21256C11.1305 8.4109 11.6667 7.48547 12.0385 6.46201C12.3929 5.48642 12.5802 4.44545 12.5802 3.45161V3.40427C12.5802 3.24469 12.6502 3.09454 12.7724 2.99232C13.2361 2.60437 13.6399 2.14768 13.9725 1.63497C14.0604 1.49959 13.9219 1.32992 13.7773 1.39597Z" fill="black"/>
</svg>
